{
	"asset":{
		"generator":"Khronos glTF Blender I/O v4.1.62",
		"version":"2.0"
	},
	"scene":0,
	"scenes":[
		{
			"name":"Scene",
			"nodes":[
				0,
				1,
				2,
				3,
				4,
				5,
				6
			]
		}
	],
	"nodes":[
		{
			"mesh":0,
			"name":"OBJETS_Baked",
			"translation":[
				-4.6602654457092285,
				0,
				-3.067549228668213
			]
		},
		{
			"mesh":1,
			"name":"TonyPizza_Baked",
			"translation":[
				-4.895031929016113,
				2.1921873092651367,
				4.673788070678711
			]
		},
		{
			"mesh":2,
			"name":"sol_Baked"
		},
		{
			"mesh":3,
			"name":"sol_collider"
		},
		{
			"name":"screen",
			"rotation":[
				0,
				-1,
				0,
				1.6292068494294654e-07
			],
			"translation":[
				0,
				2,
				-5.909999847412109
			]
		},
		{
			"name":"spawn",
			"translation":[
				0,
				2,
				0
			]
		},
		{
			"mesh":4,
			"name":"Cubes_collider",
			"translation":[
				4.329561233520508,
				0.6999990344047546,
				4.340388298034668
			]
		}
	],
	"materials":[
		{
			"doubleSided":true,
			"emissiveFactor":[
				1,
				1,
				1
			],
			"emissiveTexture":{
				"index":0
			},
			"name":"tout_Baked.001",
			"pbrMetallicRoughness":{
				"baseColorFactor":[
					0,
					0,
					0,
					1
				]
			}
		},
		{
			"doubleSided":true,
			"emissiveFactor":[
				1,
				1,
				1
			],
			"emissiveTexture":{
				"index":1
			},
			"name":"tout_Baked.002",
			"pbrMetallicRoughness":{
				"baseColorFactor":[
					0,
					0,
					0,
					1
				]
			}
		},
		{
			"doubleSided":true,
			"emissiveFactor":[
				1,
				1,
				1
			],
			"emissiveTexture":{
				"index":2
			},
			"name":"sol_Baked.002",
			"pbrMetallicRoughness":{
				"baseColorFactor":[
					0,
					0,
					0,
					1
				]
			}
		}
	],
	"meshes":[
		{
			"name":"Cube.008",
			"primitives":[
				{
					"attributes":{
						"POSITION":0,
						"NORMAL":1,
						"TEXCOORD_0":2
					},
					"indices":3,
					"material":0
				}
			]
		},
		{
			"name":"Suzanne.002",
			"primitives":[
				{
					"attributes":{
						"POSITION":4,
						"NORMAL":5,
						"TEXCOORD_0":6
					},
					"indices":7,
					"material":1
				}
			]
		},
		{
			"name":"Plane.004",
			"primitives":[
				{
					"attributes":{
						"POSITION":8,
						"NORMAL":9,
						"TEXCOORD_0":10
					},
					"indices":11,
					"material":2
				}
			]
		},
		{
			"name":"Plane.001",
			"primitives":[
				{
					"attributes":{
						"POSITION":12,
						"NORMAL":13,
						"TEXCOORD_0":14
					},
					"indices":11
				}
			]
		},
		{
			"name":"Cube.010",
			"primitives":[
				{
					"attributes":{
						"POSITION":15,
						"NORMAL":16,
						"TEXCOORD_0":17
					},
					"indices":18
				}
			]
		}
	],
	"textures":[
		{
			"sampler":0,
			"source":0
		},
		{
			"sampler":0,
			"source":0
		},
		{
			"sampler":0,
			"source":1
		}
	],
	"images":[
		{
			"mimeType":"image/jpeg",
			"name":"tout_Bake1_CyclesBake_COMBINED",
			"uri":"tout_Bake1_CyclesBake_COMBINED.jpg"
		},
		{
			"mimeType":"image/jpeg",
			"name":"sol_Bake1_CyclesBake_COMBINED",
			"uri":"sol_Bake1_CyclesBake_COMBINED.jpg"
		}
	],
	"accessors":[
		{
			"bufferView":0,
			"componentType":5126,
			"count":84,
			"max":[
				10.660449028015137,
				2.765001058578491,
				8.279841423034668
			],
			"min":[
				-0.5315703749656677,
				0,
				-3.317450761795044
			],
			"type":"VEC3"
		},
		{
			"bufferView":1,
			"componentType":5126,
			"count":84,
			"type":"VEC3"
		},
		{
			"bufferView":2,
			"componentType":5126,
			"count":84,
			"type":"VEC2"
		},
		{
			"bufferView":3,
			"componentType":5123,
			"count":126,
			"type":"SCALAR"
		},
		{
			"bufferView":4,
			"componentType":5126,
			"count":1966,
			"max":[
				0.5137572884559631,
				0.4921875,
				0.660150408744812
			],
			"min":[
				-0.6601505279541016,
				-0.4921875,
				-0.5137572288513184
			],
			"type":"VEC3"
		},
		{
			"bufferView":5,
			"componentType":5126,
			"count":1966,
			"type":"VEC3"
		},
		{
			"bufferView":6,
			"componentType":5126,
			"count":1966,
			"type":"VEC2"
		},
		{
			"bufferView":7,
			"componentType":5123,
			"count":2904,
			"type":"SCALAR"
		},
		{
			"bufferView":8,
			"componentType":5126,
			"count":4,
			"max":[
				7.5,
				0,
				7.5
			],
			"min":[
				-7.5,
				0,
				-7.5
			],
			"type":"VEC3"
		},
		{
			"bufferView":9,
			"componentType":5126,
			"count":4,
			"type":"VEC3"
		},
		{
			"bufferView":10,
			"componentType":5126,
			"count":4,
			"type":"VEC2"
		},
		{
			"bufferView":11,
			"componentType":5123,
			"count":6,
			"type":"SCALAR"
		},
		{
			"bufferView":12,
			"componentType":5126,
			"count":4,
			"max":[
				7.499999523162842,
				0,
				7.499999523162842
			],
			"min":[
				-7.499999523162842,
				0,
				-7.499999523162842
			],
			"type":"VEC3"
		},
		{
			"bufferView":13,
			"componentType":5126,
			"count":4,
			"type":"VEC3"
		},
		{
			"bufferView":14,
			"componentType":5126,
			"count":4,
			"type":"VEC2"
		},
		{
			"bufferView":15,
			"componentType":5126,
			"count":72,
			"max":[
				1.6767381429672241,
				0.699999988079071,
				0.9251033067703247
			],
			"min":[
				-9.544695854187012,
				-0.7000000476837158,
				-9.20556640625
			],
			"type":"VEC3"
		},
		{
			"bufferView":16,
			"componentType":5126,
			"count":72,
			"type":"VEC3"
		},
		{
			"bufferView":17,
			"componentType":5126,
			"count":72,
			"type":"VEC2"
		},
		{
			"bufferView":18,
			"componentType":5123,
			"count":108,
			"type":"SCALAR"
		}
	],
	"bufferViews":[
		{
			"buffer":0,
			"byteLength":1008,
			"byteOffset":0,
			"target":34962
		},
		{
			"buffer":0,
			"byteLength":1008,
			"byteOffset":1008,
			"target":34962
		},
		{
			"buffer":0,
			"byteLength":672,
			"byteOffset":2016,
			"target":34962
		},
		{
			"buffer":0,
			"byteLength":252,
			"byteOffset":2688,
			"target":34963
		},
		{
			"buffer":0,
			"byteLength":23592,
			"byteOffset":2940,
			"target":34962
		},
		{
			"buffer":0,
			"byteLength":23592,
			"byteOffset":26532,
			"target":34962
		},
		{
			"buffer":0,
			"byteLength":15728,
			"byteOffset":50124,
			"target":34962
		},
		{
			"buffer":0,
			"byteLength":5808,
			"byteOffset":65852,
			"target":34963
		},
		{
			"buffer":0,
			"byteLength":48,
			"byteOffset":71660,
			"target":34962
		},
		{
			"buffer":0,
			"byteLength":48,
			"byteOffset":71708,
			"target":34962
		},
		{
			"buffer":0,
			"byteLength":32,
			"byteOffset":71756,
			"target":34962
		},
		{
			"buffer":0,
			"byteLength":12,
			"byteOffset":71788,
			"target":34963
		},
		{
			"buffer":0,
			"byteLength":48,
			"byteOffset":71800,
			"target":34962
		},
		{
			"buffer":0,
			"byteLength":48,
			"byteOffset":71848,
			"target":34962
		},
		{
			"buffer":0,
			"byteLength":32,
			"byteOffset":71896,
			"target":34962
		},
		{
			"buffer":0,
			"byteLength":864,
			"byteOffset":71928,
			"target":34962
		},
		{
			"buffer":0,
			"byteLength":864,
			"byteOffset":72792,
			"target":34962
		},
		{
			"buffer":0,
			"byteLength":576,
			"byteOffset":73656,
			"target":34962
		},
		{
			"buffer":0,
			"byteLength":216,
			"byteOffset":74232,
			"target":34963
		}
	],
	"samplers":[
		{
			"magFilter":9729,
			"minFilter":9987
		}
	],
	"buffers":[
		{
			"byteLength":74448,
			"uri":"IAspace.bin"
		}
	]
}
